<svg xmlns="http://www.w3.org/2000/svg" viewBox="-163.84 -1653.84 13641.88 1817.68" role="img" aria-label="Tesurai"><title>Tesurai</title><defs><linearGradient id="fade" gradientUnits="userSpaceOnUse" x1="0" y1="0" x2="13314.20" y2="0"><stop offset="0.0%" stop-color="#FFFFFF" stop-opacity="0.45"/><stop offset="45.0%" stop-color="#FFFFFF" stop-opacity="0.95"/><stop offset="60.0%" stop-color="#FFFFFF" stop-opacity="1.00"/><stop offset="85.0%" stop-color="#FFFFFF" stop-opacity="0.40"/><stop offset="100.0%" stop-color="#FFFFFF" stop-opacity="0.05"/></linearGradient></defs><path d="M118.0 -1403V-1490H1164.0V-1403H688.0V0H594.0V-1403Z M2316.2 0V-1490H3148.2V-1403H2410.2V-791H3103.2V-704H2410.2V-87H3165.2V0Z M4762.4 25Q4617.4 25 4510.4 -24.0Q4403.4 -73 4341.9 -160.5Q4280.4 -248 4272.4 -363H4368.4Q4375.4 -271 4426.9 -203.5Q4478.4 -136 4564.9 -100.0Q4651.4 -64 4762.4 -64Q4881.4 -64 4972.4 -104.5Q5063.4 -145 5114.9 -218.5Q5166.4 -292 5166.4 -388Q5166.4 -466 5129.4 -521.0Q5092.4 -576 5020.4 -617.0Q4948.4 -658 4841.4 -690L4669.4 -742Q4491.4 -796 4400.4 -888.0Q4309.4 -980 4309.4 -1116Q4309.4 -1231 4370.4 -1320.5Q4431.4 -1410 4536.4 -1460.5Q4641.4 -1511 4774.4 -1511Q4908.4 -1511 5010.4 -1460.0Q5112.4 -1409 5172.4 -1320.0Q5232.4 -1231 5238.4 -1117H5145.4Q5134.4 -1254 5033.4 -1339.5Q4932.4 -1425 4772.4 -1425Q4665.4 -1425 4580.9 -1385.5Q4496.4 -1346 4448.9 -1276.5Q4401.4 -1207 4401.4 -1119Q4401.4 -1043 4440.4 -986.5Q4479.4 -930 4547.9 -891.0Q4616.4 -852 4705.4 -825L4868.4 -777Q4952.4 -751 5023.4 -717.0Q5094.4 -683 5147.4 -637.0Q5200.4 -591 5229.4 -529.5Q5258.4 -468 5258.4 -387Q5258.4 -269 5197.4 -176.0Q5136.4 -83 5025.4 -29.0Q4914.4 25 4762.4 25Z M6966.599999999999 23Q6806.599999999999 23 6681.599999999999 -46.0Q6556.599999999999 -115 6485.599999999999 -234.0Q6414.599999999999 -353 6414.599999999999 -505V-1490H6508.599999999999V-510Q6508.599999999999 -382 6567.099999999999 -282.0Q6625.599999999999 -182 6729.099999999999 -124.5Q6832.599999999999 -67 6966.599999999999 -67Q7101.599999999999 -67 7204.099999999999 -124.5Q7306.599999999999 -182 7365.099999999999 -282.0Q7423.599999999999 -382 7423.599999999999 -510V-1490H7517.599999999999V-505Q7517.599999999999 -353 7447.099999999999 -234.0Q7376.599999999999 -115 7252.099999999999 -46.0Q7127.599999999999 23 6966.599999999999 23Z M8744.8 0V-1490H9206.8Q9347.8 -1490 9449.3 -1435.0Q9550.8 -1380 9605.3 -1281.0Q9659.8 -1182 9659.8 -1053Q9659.8 -924 9605.3 -827.0Q9550.8 -730 9449.3 -675.5Q9347.8 -621 9206.8 -621H8795.8V-708H9203.8Q9316.8 -708 9397.8 -750.5Q9478.8 -793 9522.3 -870.5Q9565.8 -948 9565.8 -1053Q9565.8 -1159 9522.3 -1237.5Q9478.8 -1316 9397.8 -1360.0Q9316.8 -1404 9202.8 -1404H8838.8V0ZM9617.8 0 9253.8 -676H9359.8L9725.8 0Z M10689.0 0 11241.0 -1490H11356.0L11911.0 0H11812.0L11418.0 -1064Q11389.0 -1145 11356.5 -1239.0Q11324.0 -1333 11286.0 -1450H11310.0Q11273.0 -1332 11240.0 -1237.5Q11207.0 -1143 11178.0 -1064L10789.0 0ZM10926.0 -469V-555H11674.0V-469Z M13100.2 -1490V0H13006.2V-1490Z" fill="url(#fade)"/></svg>