<svg xmlns="http://www.w3.org/2000/svg" viewBox="-163.84 -1653.84 9986.48 1817.68" role="img" aria-label="Tessa"><title>Tessa</title><defs><linearGradient id="fade" gradientUnits="userSpaceOnUse" x1="0" y1="0" x2="9658.80" y2="0"><stop offset="0.0%" stop-color="#000000" stop-opacity="1.00"/><stop offset="50.0%" stop-color="#000000" stop-opacity="0.85"/><stop offset="80.0%" stop-color="#000000" stop-opacity="0.40"/><stop offset="100.0%" stop-color="#000000" stop-opacity="0.03"/></linearGradient></defs><path d="M118.0 -1403V-1490H1164.0V-1403H688.0V0H594.0V-1403Z M2316.2 0V-1490H3148.2V-1403H2410.2V-791H3103.2V-704H2410.2V-87H3165.2V0Z M4762.4 25Q4617.4 25 4510.4 -24.0Q4403.4 -73 4341.9 -160.5Q4280.4 -248 4272.4 -363H4368.4Q4375.4 -271 4426.9 -203.5Q4478.4 -136 4564.9 -100.0Q4651.4 -64 4762.4 -64Q4881.4 -64 4972.4 -104.5Q5063.4 -145 5114.9 -218.5Q5166.4 -292 5166.4 -388Q5166.4 -466 5129.4 -521.0Q5092.4 -576 5020.4 -617.0Q4948.4 -658 4841.4 -690L4669.4 -742Q4491.4 -796 4400.4 -888.0Q4309.4 -980 4309.4 -1116Q4309.4 -1231 4370.4 -1320.5Q4431.4 -1410 4536.4 -1460.5Q4641.4 -1511 4774.4 -1511Q4908.4 -1511 5010.4 -1460.0Q5112.4 -1409 5172.4 -1320.0Q5232.4 -1231 5238.4 -1117H5145.4Q5134.4 -1254 5033.4 -1339.5Q4932.4 -1425 4772.4 -1425Q4665.4 -1425 4580.9 -1385.5Q4496.4 -1346 4448.9 -1276.5Q4401.4 -1207 4401.4 -1119Q4401.4 -1043 4440.4 -986.5Q4479.4 -930 4547.9 -891.0Q4616.4 -852 4705.4 -825L4868.4 -777Q4952.4 -751 5023.4 -717.0Q5094.4 -683 5147.4 -637.0Q5200.4 -591 5229.4 -529.5Q5258.4 -468 5258.4 -387Q5258.4 -269 5197.4 -176.0Q5136.4 -83 5025.4 -29.0Q4914.4 25 4762.4 25Z M6855.599999999999 25Q6710.599999999999 25 6603.599999999999 -24.0Q6496.599999999999 -73 6435.099999999999 -160.5Q6373.599999999999 -248 6365.599999999999 -363H6461.599999999999Q6468.599999999999 -271 6520.099999999999 -203.5Q6571.599999999999 -136 6658.099999999999 -100.0Q6744.599999999999 -64 6855.599999999999 -64Q6974.599999999999 -64 7065.599999999999 -104.5Q7156.599999999999 -145 7208.099999999999 -218.5Q7259.599999999999 -292 7259.599999999999 -388Q7259.599999999999 -466 7222.599999999999 -521.0Q7185.599999999999 -576 7113.599999999999 -617.0Q7041.599999999999 -658 6934.599999999999 -690L6762.599999999999 -742Q6584.599999999999 -796 6493.599999999999 -888.0Q6402.599999999999 -980 6402.599999999999 -1116Q6402.599999999999 -1231 6463.599999999999 -1320.5Q6524.599999999999 -1410 6629.599999999999 -1460.5Q6734.599999999999 -1511 6867.599999999999 -1511Q7001.599999999999 -1511 7103.599999999999 -1460.0Q7205.599999999999 -1409 7265.599999999999 -1320.0Q7325.599999999999 -1231 7331.599999999999 -1117H7238.599999999999Q7227.599999999999 -1254 7126.599999999999 -1339.5Q7025.599999999999 -1425 6865.599999999999 -1425Q6758.599999999999 -1425 6674.099999999999 -1385.5Q6589.599999999999 -1346 6542.099999999999 -1276.5Q6494.599999999999 -1207 6494.599999999999 -1119Q6494.599999999999 -1043 6533.599999999999 -986.5Q6572.599999999999 -930 6641.099999999999 -891.0Q6709.599999999999 -852 6798.599999999999 -825L6961.599999999999 -777Q7045.599999999999 -751 7116.599999999999 -717.0Q7187.599999999999 -683 7240.599999999999 -637.0Q7293.599999999999 -591 7322.599999999999 -529.5Q7351.599999999999 -468 7351.599999999999 -387Q7351.599999999999 -269 7290.599999999999 -176.0Q7229.599999999999 -83 7118.599999999999 -29.0Q7007.599999999999 25 6855.599999999999 25Z M8375.8 0 8927.8 -1490H9042.8L9597.8 0H9498.8L9104.8 -1064Q9075.8 -1145 9043.3 -1239.0Q9010.8 -1333 8972.8 -1450H8996.8Q8959.8 -1332 8926.8 -1237.5Q8893.8 -1143 8864.8 -1064L8475.8 0ZM8612.8 -469V-555H9360.8V-469Z" fill="url(#fade)"/></svg>